<svg version="1.1" id="Capa_1" xmlns="http://www.w3.org/2000/svg" xmlns:xlink="http://www.w3.org/1999/xlink" x="0px" y="0px" width="31.5px" height="31.5px" viewBox="0 0 31.5 31.5" style="enable-background:new 0 0 31.5 31.5;" xml:space="preserve">
	<path fill="#FFFFFF" d="M30.75,15h-5.777l3.979-3.979c0.293-0.293,0.293-0.768,0-1.061s-0.769-0.293-1.062,0L22.85,15h-1.664l-2.504-1.121
		l6.51-6.511c0.293-0.293,0.293-0.768,0-1.061s-0.768-0.293-1.061,0l-6.51,6.511L16.5,10.314V8.361l5.244-5.245
		c0.293-0.293,0.293-0.768,0-1.061s-0.77-0.293-1.062,0l-4.184,4.184V0.75c0-0.414-0.335-0.75-0.75-0.75s-0.75,0.336-0.75,0.75v5.49
		l-4.184-4.184c-0.293-0.293-0.769-0.293-1.062,0s-0.293,0.768,0,1.061l5.244,5.245v1.953l-1.121,2.504L7.364,6.308
		c-0.293-0.293-0.768-0.293-1.061,0c-0.294,0.293-0.294,0.768,0,1.061l6.51,6.511l-2.504,1.121H8.645l-5.041-5.04
		c-0.293-0.293-0.768-0.293-1.061,0s-0.293,0.768,0,1.061l3.979,3.979H0.75c-0.414,0-0.75,0.336-0.75,0.75s0.336,0.75,0.75,0.75
		h5.777L2.548,20.48c-0.293,0.293-0.293,0.769,0,1.062c0.146,0.146,0.338,0.219,0.53,0.219s0.384-0.071,0.53-0.219l5.039-5.041
		h1.664l2.506,1.121l-6.512,6.512c-0.293,0.293-0.293,0.769,0,1.062c0.146,0.146,0.338,0.221,0.53,0.221s0.384-0.074,0.53-0.221
		l6.511-6.512l1.121,2.504v1.953l-5.244,5.243c-0.293,0.293-0.293,0.769,0,1.062c0.293,0.294,0.769,0.294,1.062,0l4.184-4.185v5.489
		c0,0.414,0.336,0.75,0.75,0.75s0.75-0.336,0.75-0.75v-5.49l4.185,4.186c0.146,0.146,0.338,0.222,0.53,0.222
		c0.19,0,0.384-0.074,0.529-0.222c0.293-0.293,0.293-0.768,0-1.061l-5.244-5.246v-1.951l1.121-2.504l6.512,6.51
		c0.146,0.146,0.339,0.222,0.529,0.222s0.385-0.074,0.528-0.222c0.293-0.293,0.293-0.768,0-1.061l-6.51-6.512l2.504-1.121h1.666
		l5.041,5.041c0.146,0.146,0.338,0.219,0.529,0.219s0.385-0.072,0.531-0.219c0.293-0.293,0.293-0.77,0-1.062l-3.98-3.979h5.779
		c0.414,0,0.75-0.335,0.75-0.75S31.164,15,30.75,15z M17.547,16.486L17.518,16.5l-0.703,0.314l-0.312,0.701l-0.016,0.03
		l-0.735,1.644l-0.735-1.644l-0.015-0.03l-0.313-0.701L13.986,16.5l-0.029-0.014l-1.646-0.736l1.645-0.736L13.985,15l0.703-0.314
		l0.313-0.702l0.015-0.03l0.735-1.644l0.735,1.644l0.016,0.03l0.312,0.702L17.518,15l0.028,0.014l1.646,0.736L17.547,16.486z"/>
</svg>
