<svg xmlns="http://www.w3.org/2000/svg" xmlns:xlink="http://www.w3.org/1999/xlink" version="1.1" x="0px" y="0px" width="512px" height="512px" viewBox="0 0 37.283 37.283" style="enable-background:new 0 0 37.283 37.283;" xml:space="preserve">
	<path d="M34.592,27.252l-9.773-5.645l4.194-1.123c0.277-0.073,0.442-0.359,0.368-0.637c-0.072-0.276-0.357-0.443-0.636-0.368   l-5.2,1.393l-3.862-2.23l3.865-2.232l5.197,1.391c0.044,0.013,0.09,0.019,0.135,0.019c0.23,0,0.44-0.153,0.501-0.387   c0.074-0.278-0.091-0.563-0.368-0.637l-4.191-1.123l9.771-5.642c0.249-0.143,0.335-0.462,0.192-0.711   c-0.146-0.25-0.464-0.334-0.713-0.19l-9.772,5.643l1.124-4.194c0.074-0.277-0.091-0.563-0.368-0.637   c-0.278-0.073-0.563,0.09-0.639,0.369l-1.394,5.2l-3.862,2.229v-4.46l3.804-3.804c0.203-0.204,0.203-0.534,0-0.736   c-0.201-0.204-0.533-0.204-0.736,0l-3.068,3.067V0.521C19.161,0.233,18.928,0,18.641,0c-0.288,0-0.521,0.233-0.521,0.521v11.286   l-3.068-3.067c-0.204-0.204-0.534-0.204-0.737,0c-0.204,0.203-0.204,0.533,0,0.736l3.805,3.804v4.46l-3.863-2.229l-1.394-5.2   c-0.074-0.278-0.36-0.441-0.638-0.369c-0.278,0.074-0.442,0.361-0.369,0.637l1.124,4.194L3.208,9.129   c-0.25-0.144-0.567-0.059-0.711,0.19c-0.144,0.25-0.059,0.568,0.191,0.711l9.771,5.642l-4.19,1.123   c-0.278,0.074-0.442,0.36-0.369,0.637c0.062,0.233,0.273,0.387,0.502,0.387c0.044,0,0.089-0.006,0.135-0.019l5.197-1.391   l3.864,2.232l-3.861,2.229l-5.2-1.393c-0.275-0.074-0.563,0.091-0.637,0.369c-0.074,0.277,0.09,0.563,0.369,0.636l4.193,1.123   l-9.773,5.645c-0.25,0.142-0.335,0.46-0.191,0.711c0.097,0.168,0.272,0.26,0.452,0.26c0.088,0,0.178-0.022,0.26-0.069l9.772-5.642   L11.859,26.7c-0.074,0.279,0.09,0.563,0.369,0.639c0.045,0.013,0.091,0.018,0.135,0.018c0.23,0,0.44-0.152,0.502-0.387l1.391-5.196   l3.864-2.229v4.458l-3.805,3.804c-0.204,0.204-0.204,0.534,0,0.736c0.203,0.204,0.533,0.204,0.737,0l3.068-3.066v11.287   c0,0.286,0.233,0.521,0.521,0.521c0.287,0,0.521-0.234,0.521-0.521V25.476l3.068,3.067c0.104,0.104,0.236,0.153,0.369,0.153   c0.132,0,0.267-0.051,0.368-0.153c0.203-0.201,0.203-0.532,0-0.736l-3.804-3.805v-4.457l3.864,2.229l1.391,5.196   c0.062,0.232,0.273,0.387,0.501,0.387c0.045,0,0.09-0.006,0.138-0.019c0.277-0.075,0.442-0.362,0.368-0.639l-1.122-4.189   l9.771,5.642c0.082,0.047,0.172,0.071,0.261,0.071c0.18,0,0.356-0.095,0.453-0.26C34.929,27.713,34.843,27.393,34.592,27.252z" fill="#FFFFFF"/>
</svg>
