<svg xmlns="http://www.w3.org/2000/svg" xmlns:xlink="http://www.w3.org/1999/xlink" version="1.1" x="0px" y="0px" width="512px" height="512px" viewBox="0 0 31.25 31.25" style="enable-background:new 0 0 31.25 31.25;" xml:space="preserve">
	<path d="M20.581,1.176l-3.914,3.915V0h1.041v2.576l2.137-2.137L20.581,1.176z M18.966,10.245l0.351,0.217l6.623-6.625l-0.736-0.737   l-6.048,6.051c-0.46-0.252-0.944-0.454-1.449-0.6V8.469l5.082-5.082L22.052,2.65l-5.387,5.388v1.33l0.402,0.093   C17.739,9.615,18.378,9.879,18.966,10.245z M21.007,12.288c0.368,0.585,0.63,1.224,0.786,1.893l0.094,0.403h1.028l5.171-5.173   L27.35,8.674l-4.699,4.701c-0.143-0.442-0.326-0.87-0.549-1.28l6.048-6.05L27.413,5.31l-6.622,6.625L21.007,12.288z M28.375,13.542   l1.921-1.923l-0.736-0.735l-3.699,3.7h5.39v-1.042H28.375z M29.56,20.368l0.736-0.736l-1.923-1.923h2.877v-1.042h-5.389   L29.56,20.368z M22.645,17.87l4.705,4.707l0.736-0.736l-5.171-5.174h-1.03l-0.096,0.4c-0.156,0.658-0.423,1.291-0.795,1.883   l-0.22,0.353l6.639,6.641l0.736-0.736l-6.061-6.062C22.315,18.732,22.502,18.306,22.645,17.87z M18.945,20.995   c-0.585,0.368-1.219,0.637-1.88,0.794l-0.399,0.096v1.33l5.387,5.387l0.736-0.736l-5.082-5.082v-0.089   c0.496-0.149,0.976-0.352,1.434-0.605l6.061,6.062l0.736-0.736l-6.641-6.641L18.945,20.995z M16.667,31.25h1.041v-2.576   l2.137,2.137l0.736-0.737l-3.914-3.914V31.25z M11.407,30.811l2.134-2.137v2.576h1.042v-5.093l-3.913,3.916L11.407,30.811z    M12.304,20.995l-0.352-0.222L5.31,27.414l0.736,0.736l6.062-6.062c0.456,0.254,0.937,0.456,1.433,0.605v0.089l-5.08,5.082   l0.736,0.736l5.387-5.387v-1.33l-0.4-0.096C13.521,21.631,12.89,21.364,12.304,20.995z M10.258,18.948   C9.888,18.36,9.62,17.727,9.46,17.065l-0.096-0.4H8.335l-5.172,5.174L3.9,22.575l4.706-4.71c0.145,0.441,0.329,0.865,0.556,1.276   l-6.062,6.061l0.736,0.736l6.643-6.643L10.258,18.948z M0,16.667v1.042h2.876l-1.922,1.923l0.736,0.736l3.698-3.701H0z    M1.69,10.884l-0.736,0.735l1.921,1.923H0v1.042h5.39L1.69,10.884z M8.606,13.382L3.9,8.674L3.164,9.411l5.172,5.173h1.029   l0.096-0.4c0.156-0.661,0.425-1.292,0.798-1.881l0.222-0.352L3.837,5.31L3.101,6.046l6.062,6.06   C8.936,12.517,8.748,12.943,8.606,13.382z M8.461,3.386l5.08,5.082v0.088c-0.497,0.15-0.977,0.352-1.433,0.606L6.047,3.101   L5.311,3.838l6.643,6.643l0.352-0.222c0.585-0.37,1.219-0.639,1.88-0.797l0.4-0.095v-1.33L9.2,2.649L8.461,3.386z M13.542,2.576   l-2.134-2.137l-0.736,0.737l3.913,3.917V0h-1.042V2.576z M11.785,17.407c0.42,0.91,1.151,1.641,2.06,2.058l0.739,0.338v-3.136   h-3.138L11.785,17.407z M11.785,13.845l-0.337,0.738h3.135v-3.136l-0.739,0.338C12.935,12.206,12.204,12.937,11.785,13.845z    M19.464,17.406l0.338-0.739h-3.135v3.136l0.738-0.338C18.314,19.046,19.046,18.315,19.464,17.406z M19.464,13.845   c-0.416-0.909-1.148-1.639-2.059-2.06l-0.738-0.34v3.138h3.135L19.464,13.845z" fill="#FFFFFF"/>
</svg>
